<svg xmlns="http://www.w3.org/2000/svg" viewBox="0 0 127.73 258.44"><defs><style>.cls-1{fill:none;stroke:#000;stroke-miterlimit:10;}</style></defs><title>Asset 3</title><g id="Layer_2" data-name="Layer 2"><g id="Layer_1-2" data-name="Layer 1"><path class="cls-1" d="M122.1,69.21a147.57,147.57,0,0,1-13.57,53.87c-15.36,33.57-10.1,64.27,11.71,93.09,12.6,16.65,7.91,31.49-11.94,38.58-32.78,11.72-76.19-10.13-89.95-45.62C7,179.89,8.67,150.54,20.59,122.07,29.93,99.8,27,79.42,15.24,59.34c-4.19-7.13-8.56-14.2-12.1-21.65C-2.45,25.9.89,13.22,12.61,8,39.36-3.8,66-1.39,91.12,13.15,112.36,25.45,120.76,45.54,122.1,69.21Z"/></g></g></svg>